<?xml version="1.0" encoding="UTF-8"?>
<svg id="Layer_1" xmlns="http://www.w3.org/2000/svg" version="1.1" viewBox="0 0 110 135">
  <!-- Generator: Adobe Illustrator 29.6.1, SVG Export Plug-In . SVG Version: 2.1.1 Build 9)  -->
  <defs>
    <style>
      .st0 {
        fill: #e74339;
      }
    </style>
  </defs>
  <path class="st0" d="M28.78,15.55c-10.05,0-18.23,8.18-18.23,18.23v52.45c0,10.05,8.18,18.21,18.23,18.21h52.45c10.05,0,18.21-8.16,18.21-18.21v-52.45c0-10.05-8.16-18.23-18.21-18.23H28.78ZM28.78,21.11h52.45c7.07,0,12.65,5.61,12.65,12.67v52.45c0,7.07-5.59,12.65-12.65,12.65H28.78c-7.07,0-12.67-5.58-12.67-12.65v-52.45c0-7.07,5.61-12.67,12.67-12.67h0ZM53.8,38.91c-.59.04-1.14.26-1.6.64l-21.42,18.24c-.62.47-1.02,1.18-1.09,1.96-.01.09-.02.18-.02.27,0,.07.01.14.02.21,0,.04,0,.07.01.1.02.15.04.3.09.44,0,.02.01.04.02.06.05.15.11.29.18.43.01.03.02.05.04.08.06.12.14.23.21.34.04.05.09.11.14.16.06.07.12.14.2.2.03.03.05.06.08.09l21.55,18.33c.56.48,1.29.71,2.02.66s1.42-.41,1.89-.96c.48-.56.72-1.29.66-2.02-.06-.73-.4-1.41-.96-1.89l-15.84-13.45h37.59c.73,0,1.45-.29,1.96-.8.52-.52.82-1.23.82-1.96,0-.74-.29-1.45-.82-1.98-.52-.52-1.23-.82-1.97-.81h-37.57l15.81-13.43c.56-.48.91-1.16.96-1.89s-.18-1.46-.66-2.02c-.48-.55-1.15-.9-1.88-.96-.14-.01-.29-.02-.44,0h0Z"/>
</svg>